<svg width="151" height="45" viewBox="0 0 151 45" fill="none" xmlns="http://www.w3.org/2000/svg">
<path d="M0 22.1557V21.9926C0 9.93596 9.18283 0 22.0565 0C28.4195 0 32.8928 1.73509 36.4213 4.7307C37.2038 5.36839 38.311 6.77722 38.311 8.83856C38.311 11.8342 35.8751 14.2069 32.8928 14.2069C31.3279 14.2069 30.1469 13.5693 29.4382 13.0206C27.3123 11.3596 25.1273 10.3364 21.9827 10.3364C16.0183 10.3364 11.7812 15.6158 11.7812 21.8443V22.0074C11.7812 28.4732 15.9445 33.6785 22.4551 33.6785C25.5997 33.6785 28.0357 32.5811 30.3093 30.757C30.9441 30.2824 32.1104 29.6596 33.5277 29.6596C36.3475 29.6596 38.5472 31.9434 38.5472 34.7907C38.5472 36.3627 37.8386 37.6232 36.8199 38.5723C33.2915 41.8052 28.8181 44.0148 21.9089 44.0148C9.27141 44 0 34.2272 0 22.1557Z" fill="#E7366A"/>
<path d="M37.1152 23.5796H33.0553C32.199 23.5796 31.4756 22.8826 31.4756 21.9928C31.4756 21.1327 32.1842 20.406 33.0553 20.406H37.1152V16.402C37.1152 15.4825 37.8238 14.7559 38.7539 14.7559C39.6397 14.7559 40.3927 15.4677 40.3927 16.402V20.406H44.4526C45.3089 20.406 46.0323 21.1178 46.0323 21.9928C46.0323 22.8826 45.3236 23.5796 44.4526 23.5796H40.3927V27.5836C40.3927 28.5031 39.6545 29.2297 38.7539 29.2297C37.8386 29.2297 37.1152 28.5179 37.1152 27.5836V23.5796Z" fill="#27B8D2"/>
<path d="M56.6323 5.84294V5.81328C56.6323 2.62487 59.0092 0 62.39 0C64.1174 0 65.2541 0.519043 66.2285 1.26053C66.4352 1.42366 66.6124 1.6906 66.6124 2.04651C66.6124 2.59521 66.1842 3.01045 65.638 3.01045C65.3722 3.01045 65.1803 2.90664 65.0475 2.81766C64.2798 2.19481 63.453 1.80923 62.3753 1.80923C60.2494 1.80923 58.6844 3.57398 58.6844 5.76879V5.79845C58.6844 7.99326 60.2346 9.77283 62.3753 9.77283C63.5564 9.77283 64.3536 9.38726 65.1656 8.70509C65.3132 8.57162 65.5199 8.48264 65.7561 8.48264C66.2581 8.48264 66.6862 8.89788 66.6862 9.40209C66.6862 9.71352 66.5386 9.95079 66.3614 10.1139C65.3132 11.0482 64.1174 11.6266 62.3015 11.6266C59.0535 11.6117 56.6323 9.061 56.6323 5.84294Z" fill="#27B8D2"/>
<path d="M76.8877 1.09742C76.8877 0.548717 77.3158 0.118652 77.8768 0.118652C78.4231 0.118652 78.8512 0.548717 78.8512 1.09742V9.62455H83.9151C84.417 9.62455 84.8156 10.025 84.8156 10.5292C84.8156 11.0334 84.417 11.4338 83.9151 11.4338H77.8768C77.3158 11.4338 76.8877 11.0037 76.8877 10.4402V1.09742Z" fill="#27B8D2"/>
<path d="M94.8696 1.09742C94.8696 0.548716 95.2978 0.118652 95.8588 0.118652C96.405 0.118652 96.8332 0.548716 96.8332 1.09742V10.5292C96.8332 11.0779 96.405 11.5079 95.8588 11.5079C95.2978 11.5079 94.8696 11.0779 94.8696 10.5292V1.09742Z" fill="#27B8D2"/>
<path d="M107.802 1.12677C107.802 0.578069 108.23 0.133175 108.791 0.133175H108.998C109.471 0.133175 109.751 0.370452 110.017 0.711537L115.612 7.97814V1.06745C115.612 0.53358 116.04 0.103516 116.572 0.103516C117.118 0.103516 117.546 0.53358 117.546 1.06745V10.4992C117.546 11.0479 117.133 11.478 116.586 11.478H116.513C116.055 11.478 115.76 11.2407 115.494 10.8848L109.736 3.41056V10.5289C109.736 11.0627 109.308 11.4928 108.777 11.4928C108.23 11.4928 107.802 11.0627 107.802 10.5289V1.12677Z" fill="#27B8D2"/>
<path d="M128.516 1.09742C128.516 0.548716 128.944 0.118652 129.505 0.118652C130.051 0.118652 130.479 0.548716 130.479 1.09742V10.5292C130.479 11.0779 130.051 11.5079 129.505 11.5079C128.944 11.5079 128.516 11.0779 128.516 10.5292V1.09742Z" fill="#27B8D2"/>
<path d="M140.946 5.84294V5.81328C140.946 2.62487 143.323 0 146.704 0C148.431 0 149.568 0.519043 150.542 1.26053C150.749 1.42366 150.926 1.6906 150.926 2.04651C150.926 2.59521 150.498 3.01045 149.952 3.01045C149.686 3.01045 149.494 2.90664 149.361 2.81766C148.594 2.19481 147.767 1.80923 146.689 1.80923C144.563 1.80923 142.998 3.57398 142.998 5.76879V5.79845C142.998 7.99326 144.549 9.77283 146.689 9.77283C147.87 9.77283 148.668 9.38726 149.479 8.70509C149.627 8.57162 149.834 8.48264 150.07 8.48264C150.572 8.48264 151 8.89788 151 9.40209C151 9.71352 150.852 9.95079 150.675 10.1139C149.627 11.0482 148.431 11.6266 146.615 11.6266C143.367 11.6117 140.946 9.061 140.946 5.84294Z" fill="#27B8D2"/>
<path d="M56.6323 22.3929C56.6323 20.9248 57.7839 19.7681 59.2454 19.7681H66.3319C72.001 19.7681 75.4261 23.1493 75.4261 28.0134V28.0876C75.4261 33.6043 71.1447 36.4664 65.8299 36.4664H61.8586V41.1971C61.8586 42.6653 60.707 43.822 59.2454 43.822C57.7839 43.822 56.6323 42.6653 56.6323 41.1971V22.3929ZM65.9923 31.8099C68.6054 31.8099 70.1261 30.2379 70.1261 28.1914V28.1172C70.1261 25.7593 68.5021 24.4988 65.889 24.4988H61.8586V31.795H65.9923V31.8099Z" fill="#E7366A"/>
<path d="M78.438 22.2001C78.438 20.7319 79.5895 19.5752 81.0511 19.5752C82.5127 19.5752 83.6642 20.7319 83.6642 22.2001V38.8539H93.3343C94.663 38.8539 95.7112 39.9068 95.7112 41.2415C95.7112 42.5762 94.663 43.6291 93.3343 43.6291H81.0511C79.5895 43.6291 78.438 42.4724 78.438 41.0042V22.2001Z" fill="#E7366A"/>
<path d="M97.5415 33.4114V22.2001C97.5415 20.7319 98.6931 19.5752 100.155 19.5752C101.616 19.5752 102.768 20.7319 102.768 22.2001V33.2779C102.768 37.1633 104.702 39.1802 107.891 39.1802C111.08 39.1802 113.014 37.2375 113.014 33.4559V22.2149C113.014 20.7467 114.165 19.59 115.627 19.59C117.088 19.59 118.24 20.7467 118.24 22.2149V33.2631C118.24 40.4852 114.209 44.0295 107.817 44.0295C101.424 44.0295 97.5415 40.4259 97.5415 33.4114Z" fill="#E7366A"/>
<path d="M122.241 41.1081C121.665 40.6929 121.252 39.9514 121.252 39.1357C121.252 37.7714 122.344 36.7185 123.688 36.7185C124.367 36.7185 124.839 36.9558 125.179 37.193C126.98 38.5277 128.944 39.3434 131.247 39.3434C133.387 39.3434 134.672 38.4981 134.672 37.0892V37.0151C134.672 35.6804 133.86 34.9982 129.889 33.975C125.105 32.7441 122.02 31.4242 122.02 26.6787V26.6046C122.02 22.2743 125.474 19.4121 130.331 19.4121C133.21 19.4121 135.72 20.1684 137.861 21.5179C138.437 21.859 139.012 22.5709 139.012 23.5941C139.012 24.9585 137.92 26.0114 136.576 26.0114C136.074 26.0114 135.661 25.8779 135.248 25.6406C133.52 24.6174 131.896 24.039 130.258 24.039C128.25 24.039 127.202 24.9585 127.202 26.1152V26.1893C127.202 27.7613 128.22 28.2655 132.324 29.3184C137.137 30.5789 139.854 32.314 139.854 36.4812V36.5554C139.854 41.2861 136.252 43.9554 131.129 43.9554C128.043 43.9702 124.899 43.0211 122.241 41.1081Z" fill="#E7366A"/>
</svg>
