<svg width="87" height="26" viewBox="0 0 87 26" fill="none" xmlns="http://www.w3.org/2000/svg">
<path d="M0 12.7081V12.6145C0 5.69906 5.29077 0 12.7081 0C16.3742 0 18.9515 0.995209 20.9844 2.71343C21.4353 3.07919 22.0732 3.88727 22.0732 5.06961C22.0732 6.78784 20.6697 8.14881 18.9515 8.14881C18.0499 8.14881 17.3694 7.78304 16.9611 7.46832C15.7362 6.51564 14.4773 5.92872 12.6655 5.92872C9.22907 5.92872 6.78784 8.95688 6.78784 12.5294V12.623C6.78784 16.3316 9.18655 19.3173 12.9377 19.3173C14.7495 19.3173 16.153 18.6878 17.4629 17.6416C17.8287 17.3694 18.5007 17.0121 19.3173 17.0121C20.9419 17.0121 22.2093 18.3221 22.2093 19.9552C22.2093 20.8569 21.801 21.5799 21.2141 22.1243C19.1812 23.9786 16.6038 25.246 12.623 25.246C5.3418 25.2375 0 19.632 0 12.7081Z" fill="white"/>
<path d="M21.3846 13.5245H19.0454C18.5521 13.5245 18.1353 13.1247 18.1353 12.6143C18.1353 12.121 18.5435 11.7042 19.0454 11.7042H21.3846V9.40755C21.3846 8.88018 21.7929 8.46338 22.3287 8.46338C22.8391 8.46338 23.2729 8.87167 23.2729 9.40755V11.7042H25.6121C26.1054 11.7042 26.5222 12.1125 26.5222 12.6143C26.5222 13.1247 26.1139 13.5245 25.6121 13.5245H23.2729V15.8211C23.2729 16.3485 22.8476 16.7653 22.3287 16.7653C21.8014 16.7653 21.3846 16.357 21.3846 15.8211V13.5245Z" fill="#E7366A"/>
<path d="M32.6294 3.35139V3.33438C32.6294 1.50557 33.9989 0 35.9468 0C36.942 0 37.5969 0.297712 38.1583 0.723015C38.2774 0.816582 38.3795 0.969691 38.3795 1.17384C38.3795 1.48856 38.1328 1.72673 37.8181 1.72673C37.665 1.72673 37.5544 1.66719 37.4778 1.61615C37.0355 1.2589 36.5592 1.03774 35.9383 1.03774C34.7134 1.03774 33.8117 2.04996 33.8117 3.30886V3.32587C33.8117 4.58477 34.7049 5.60549 35.9383 5.60549C36.6187 5.60549 37.0781 5.38434 37.5459 4.99306C37.631 4.9165 37.75 4.86547 37.8861 4.86547C38.1753 4.86547 38.422 5.10364 38.422 5.39284C38.422 5.57147 38.337 5.70757 38.2349 5.80113C37.631 6.33701 36.942 6.66875 35.8957 6.66875C34.0244 6.66024 32.6294 5.1972 32.6294 3.35139Z" fill="#E7366A"/>
<path d="M44.2993 0.629271C44.2993 0.314547 44.546 0.0678711 44.8692 0.0678711C45.1839 0.0678711 45.4306 0.314547 45.4306 0.629271V5.52026H48.3482C48.6374 5.52026 48.8671 5.74992 48.8671 6.03912C48.8671 6.32833 48.6374 6.55799 48.3482 6.55799H44.8692C44.546 6.55799 44.2993 6.31132 44.2993 5.98809V0.629271Z" fill="#E7366A"/>
<path d="M54.6602 0.629271C54.6602 0.314547 54.9068 0.0678711 55.2301 0.0678711C55.5448 0.0678711 55.7915 0.314547 55.7915 0.629271V6.03912C55.7915 6.35385 55.5448 6.60052 55.2301 6.60052C54.9068 6.60052 54.6602 6.35385 54.6602 6.03912V0.629271Z" fill="#E7366A"/>
<path d="M62.1113 0.646733C62.1113 0.332008 62.358 0.0768266 62.6812 0.0768266H62.8003C63.0725 0.0768266 63.2341 0.212924 63.3872 0.408563L66.611 4.57653V0.612708C66.611 0.30649 66.8577 0.0598145 67.1639 0.0598145C67.4786 0.0598145 67.7253 0.30649 67.7253 0.612708V6.02256C67.7253 6.33729 67.4872 6.58396 67.1724 6.58396H67.1299C66.8662 6.58396 66.6961 6.44787 66.543 6.24372L63.2256 1.95667V6.03957C63.2256 6.34579 62.9789 6.59247 62.6727 6.59247C62.358 6.59247 62.1113 6.34579 62.1113 6.03957V0.646733Z" fill="#E7366A"/>
<path d="M74.0454 0.629271C74.0454 0.314547 74.2921 0.0678711 74.6153 0.0678711C74.93 0.0678711 75.1767 0.314547 75.1767 0.629271V6.03912C75.1767 6.35385 74.93 6.60052 74.6153 6.60052C74.2921 6.60052 74.0454 6.35385 74.0454 6.03912V0.629271Z" fill="#E7366A"/>
<path d="M81.2075 3.35139V3.33438C81.2075 1.50557 82.577 0 84.5249 0C85.5201 0 86.1751 0.297712 86.7365 0.723015C86.8555 0.816582 86.9576 0.969691 86.9576 1.17384C86.9576 1.48856 86.7109 1.72673 86.3962 1.72673C86.2431 1.72673 86.1325 1.66719 86.056 1.61615C85.6137 1.2589 85.1373 1.03774 84.5164 1.03774C83.2915 1.03774 82.3899 2.04996 82.3899 3.30886V3.32587C82.3899 4.58477 83.283 5.60549 84.5164 5.60549C85.1969 5.60549 85.6562 5.38434 86.124 4.99306C86.2091 4.9165 86.3282 4.86547 86.4643 4.86547C86.7535 4.86547 87.0001 5.10364 87.0001 5.39284C87.0001 5.57147 86.9151 5.70757 86.813 5.80113C86.2091 6.33701 85.5201 6.66875 84.4738 6.66875C82.6025 6.66024 81.2075 5.1972 81.2075 3.35139Z" fill="#E7366A"/>
<path d="M32.6294 12.844C32.6294 12.0019 33.2929 11.3384 34.135 11.3384H38.2179C41.4842 11.3384 43.4576 13.2778 43.4576 16.0677V16.1103C43.4576 19.2745 40.9909 20.9162 37.9287 20.9162H35.6405V23.6296C35.6405 24.4717 34.9771 25.1352 34.135 25.1352C33.2929 25.1352 32.6294 24.4717 32.6294 23.6296V12.844ZM38.0222 18.2453C39.5278 18.2453 40.4039 17.3437 40.4039 16.1698V16.1273C40.4039 14.7748 39.4683 14.0518 37.9627 14.0518H35.6405V18.2368H38.0222V18.2453Z" fill="white"/>
<path d="M45.1924 12.7334C45.1924 11.8913 45.8559 11.2278 46.698 11.2278C47.5401 11.2278 48.2035 11.8913 48.2035 12.7334V22.2857H53.775C54.5405 22.2857 55.1445 22.8896 55.1445 23.6551C55.1445 24.4207 54.5405 25.0246 53.775 25.0246H46.698C45.8559 25.0246 45.1924 24.3611 45.1924 23.519V12.7334Z" fill="white"/>
<path d="M56.1997 19.1639V12.7334C56.1997 11.8913 56.8632 11.2278 57.7053 11.2278C58.5474 11.2278 59.2108 11.8913 59.2108 12.7334V19.0874C59.2108 21.316 60.3251 22.4728 62.1625 22.4728C63.9998 22.4728 65.1141 21.3585 65.1141 19.1895V12.7419C65.1141 11.8998 65.7775 11.2363 66.6196 11.2363C67.4617 11.2363 68.1252 11.8998 68.1252 12.7419V19.0789C68.1252 23.2213 65.803 25.2543 62.1199 25.2543C58.4368 25.2543 56.1997 23.1873 56.1997 19.1639Z" fill="white"/>
<path d="M70.4303 23.5789C70.0985 23.3407 69.8604 22.9154 69.8604 22.4476C69.8604 21.665 70.4898 21.0611 71.2639 21.0611C71.6551 21.0611 71.9273 21.1972 72.123 21.3333C73.1607 22.0988 74.292 22.5667 75.619 22.5667C76.8523 22.5667 77.5924 22.0818 77.5924 21.2737V21.2312C77.5924 20.4657 77.1245 20.0744 74.8364 19.4875C72.0804 18.7815 70.3027 18.0244 70.3027 15.3025V15.26C70.3027 12.7762 72.2931 11.1345 75.0916 11.1345C76.7503 11.1345 78.1963 11.5683 79.4297 12.3424C79.7614 12.538 80.0931 12.9463 80.0931 13.5332C80.0931 14.3158 79.4637 14.9197 78.6896 14.9197C78.4004 14.9197 78.1623 14.8432 77.9241 14.7071C76.9289 14.1201 75.9932 13.7884 75.049 13.7884C73.8922 13.7884 73.2883 14.3158 73.2883 14.9793V15.0218C73.2883 15.9234 73.8752 16.2126 76.2399 16.8166C79.0129 17.5396 80.578 18.5348 80.578 20.925V20.9675C80.578 23.681 78.5025 25.2121 75.5509 25.2121C73.7731 25.2206 71.9613 24.6762 70.4303 23.5789Z" fill="white"/>
</svg>
